<svg version="1.0" xmlns="http://www.w3.org/2000/svg" width="949.333" height="949.333" viewBox="0 0 712 712"><path d="M0 356v356h712V0H0v356zm305.1-216.7c3.6 1.2 9.1 3.8 12.3 5.7 7.6 4.6 17.6 15.4 21.2 23l2.8 6H540v39H341.5l-3.4 6.8c-4.6 8.9-15.4 19.7-24.1 24-29.1 14.3-63.5 3.1-76.9-25.1-4.5-9.5-6.1-16.1-6.1-25.5 0-13.5 5.4-27.4 14.5-37.9 5.4-6.1 16.7-13.4 24.5-15.8 3-.9 6-1.8 6.5-2 .6-.2 5.7-.4 11.5-.4 8.3 0 11.8.4 17.1 2.2zM424 439.5c14.8 3.9 29.6 15.7 35.8 28.6 13 26.7 5.2 57.3-18.8 73-17.7 11.7-37.4 12.8-56.7 3.4-7.4-3.7-10.3-5.8-15.6-11.5-3.5-3.8-7.7-9.7-9.3-13l-2.9-6H158v-37.7l39.2-.6c21.5-.4 66.2-.7 99.2-.8h60.1l3.3-6.9c6-12.6 19-23.3 34.2-28.1 6.9-2.2 22.3-2.4 30-.4z"/></svg>