<?xml version="1.0" standalone="no"?>
<!DOCTYPE svg PUBLIC "-//W3C//DTD SVG 20010904//EN"
 "http://www.w3.org/TR/2001/REC-SVG-20010904/DTD/svg10.dtd">
<svg version="1.0" xmlns="http://www.w3.org/2000/svg"
 width="712.000000pt" height="712.000000pt" viewBox="0 0 712.000000 712.000000"
 preserveAspectRatio="xMidYMid meet">
<metadata>
Created by potrace 1.11, written by Peter Selinger 2001-2013
</metadata>
<g transform="translate(0.000000,712.000000) scale(0.100000,-0.100000)"
fill="#000000" stroke="none">
<path d="M0 3560 l0 -3560 3560 0 3560 0 0 3560 0 3560 -3560 0 -3560 0 0
-3560z m3051 2167 c36 -12 91 -38 123 -57 76 -46 176 -154 212 -230 l28 -60
993 0 993 0 0 -195 0 -195 -992 0 -993 0 -34 -68 c-46 -89 -154 -197 -241
-240 -291 -143 -635 -31 -769 251 -45 95 -61 161 -61 255 0 135 54 274 145
379 54 61 167 134 245 158 30 9 60 18 65 20 6 2 57 4 115 4 83 0 118 -4 171
-22z m1189 -3002 c148 -39 296 -157 358 -286 130 -267 52 -573 -188 -730 -177
-117 -374 -128 -567 -34 -74 37 -103 58 -156 115 -35 38 -77 97 -93 130 l-29
60 -992 0 -993 0 0 188 0 189 392 6 c215 4 662 7 992 8 l601 0 33 69 c60 126
190 233 342 281 69 22 223 24 300 4z"/>
</g>
</svg>
